HIERARCHY
ROOT Hips
{
	OFFSET 0.000000 0.000000 0.000000 
	CHANNELS 6 Xposition Yposition Zposition Zrotation Yrotation Xrotation
	JOINT LeftUpLeg
	{
		OFFSET 1.363060 -1.794630 0.839290 
		CHANNELS 3 Zrotation Yrotation Xrotation
		JOINT LeftLeg
		{
			OFFSET 2.448110 -6.726130 0.000000 
			CHANNELS 3 Zrotation Yrotation Xrotation
			JOINT LeftFoot
			{
				OFFSET 2.562200 -7.039590 0.000000 
				CHANNELS 3 Zrotation Yrotation Xrotation
				JOINT LeftToeBase
				{
					OFFSET 0.157640 -0.433110 2.322550 
					CHANNELS 3 Zrotation Yrotation Xrotation
					End Site
					{
						OFFSET 0.000000 0.000000 0.000000 
					}
				}
			}
		}
	}
	JOINT RightUpLeg
	{
		OFFSET -1.305520 -1.794630 0.839290 
		CHANNELS 3 Zrotation Yrotation Xrotation
		JOINT RightLeg
		{
			OFFSET -2.542530 -6.985550 0.000000 
			CHANNELS 3 Zrotation Yrotation Xrotation
			JOINT RightFoot
			{
				OFFSET -2.568260 -7.056230 0.000000 
				CHANNELS 3 Zrotation Yrotation Xrotation
				JOINT RightToeBase
				{
					OFFSET -0.164730 -0.452590 2.363150 
					CHANNELS 3 Zrotation Yrotation Xrotation
					End Site
					{
						OFFSET 0.000000 0.000000 0.000000 
					}
				}
			}
		}
	}
	JOINT Spine
	{
		OFFSET 0.028270 2.035590 -0.193380 
		CHANNELS 3 Zrotation Yrotation Xrotation
		JOINT Spine1
		{
			OFFSET 0.056720 2.048850 -0.042750 
			CHANNELS 3 Zrotation Yrotation Xrotation
			JOINT Neck1
			{
				OFFSET -0.054170 1.746240 0.172020 
				CHANNELS 3 Zrotation Yrotation Xrotation
				JOINT Head
				{
					OFFSET 0.104070 1.761360 -0.123970 
					CHANNELS 3 Zrotation Yrotation Xrotation
					End Site
					{
						OFFSET 0.000000 0.000000 0.000000 
					}
				}
			}
			JOINT LeftArm
			{
				OFFSET 3.362410 1.200890 -0.311210 
				CHANNELS 3 Zrotation Yrotation Xrotation
				JOINT LeftForeArm
				{
					OFFSET 4.983000 -0.000000 -0.000000 
					CHANNELS 3 Zrotation Yrotation Xrotation
					JOINT LeftHand
					{
						OFFSET 3.483560 -0.000000 -0.000000 
						CHANNELS 3 Zrotation Yrotation Xrotation
						JOINT LeftHandIndex1
						{
							OFFSET 0.715260 -0.000000 -0.000000 
							CHANNELS 3 Zrotation Yrotation Xrotation
							End Site
							{
								OFFSET 0.000000 0.000000 0.000000 
							}
						}
					}
				}
			}
			JOINT RightArm
			{
				OFFSET -3.136600 1.374050 -0.404650 
				CHANNELS 3 Zrotation Yrotation Xrotation
				JOINT RightForeArm
				{
					OFFSET -5.241900 -0.000000 -0.000000 
					CHANNELS 3 Zrotation Yrotation Xrotation
					JOINT RightHand
					{
						OFFSET -3.444170 -0.000000 -0.000000 
						CHANNELS 3 Zrotation Yrotation Xrotation
						JOINT RightHandIndex1
						{
							OFFSET -0.622530 -0.000000 -0.000000 
							CHANNELS 3 Zrotation Yrotation Xrotation
							End Site
							{
								OFFSET 0.000000 0.000000 0.000000 
							}
						}
					}
				}
			}
		}
	}
}
MOTION
Frames: 9
Frame Time: 0.041667
11.426866 17.056457 42.357748 -160.532361 67.370013 -148.122529 -36.919715 -2.125807 -5.082755 2.466353 11.591880 37.091041 0.646073 -0.955205 9.539859 0.267800 -3.328900 -9.195900 18.333530 26.055814 -39.575062 -1.777505 -15.412432 36.609036 0.964751 -8.878497 -6.528408 -1.000200 6.364200 -17.844700 0.699662 2.447493 -3.291691 -1.970854 1.449930 5.588669 -2.107678 18.132977 8.179741 0.210400 7.795900 11.091700 -64.741887 1.227054 64.170764 87.555519 -58.428794 -63.069586 0.899589 -2.446939 -22.192641 -7.125000 0.000000 0.000000 69.771284 -19.555310 47.719690 -82.973551 56.841448 -58.904057 -0.519366 1.157792 -19.277974 7.125000 0.000000 0.000000 
11.668635 17.051712 42.268783 -162.015890 66.171080 -149.656778 -38.669308 -5.225170 -3.354322 2.806745 12.018052 38.380012 -0.540924 3.814620 6.193355 0.142200 -2.429900 -6.695300 17.965276 25.338681 -38.605171 -1.576187 -14.907733 35.383355 0.841032 -8.225866 -5.500864 -1.158100 6.832200 -19.219100 0.432748 1.813337 -3.222328 -3.769948 1.334168 6.197969 -1.939615 18.318040 8.189544 0.404000 7.914000 11.117000 -62.811814 1.130662 63.955537 89.009676 -58.580751 -64.574711 0.957411 -2.482569 -22.562786 -7.125000 0.000000 0.000000 70.299633 -19.394585 48.333027 -83.775188 56.936570 -59.392966 -0.539839 1.088599 -19.397873 7.125000 0.000000 0.000000 
11.898650 17.014077 42.210228 -163.055591 64.859409 -150.625165 -38.473737 -3.726940 -4.339781 3.417883 12.662487 40.658654 -0.670299 4.353657 6.094000 0.211200 -2.958600 -8.163500 17.521026 25.180708 -38.100395 -1.527326 -14.707850 34.957845 0.776789 -7.885981 -5.063311 -1.149600 6.808000 -19.147800 0.323858 1.705368 -3.230294 -4.410608 1.352189 6.378032 -1.893380 17.812313 8.177657 0.410400 7.696500 11.145300 -61.616476 0.740566 64.109291 90.570905 -58.648227 -66.058974 1.049627 -2.550995 -24.112502 -7.125000 0.000000 0.000000 70.580001 -19.836169 47.860246 -84.884515 57.086220 -60.388435 -0.547705 1.099886 -19.804003 7.125000 0.000000 0.000000 
12.116802 16.945277 42.131615 -165.301302 63.082185 -152.610821 -39.062237 -3.523841 -4.767223 3.967347 13.236455 42.669030 -0.968684 5.559661 5.944661 0.041300 -1.311800 -3.607100 16.574490 24.340732 -37.470397 -1.609246 -14.586951 34.945066 0.645292 -7.162507 -5.224324 -0.578500 4.870500 -13.539500 0.282894 1.472867 -3.278872 -4.677440 1.272845 6.435933 -1.914792 17.027717 8.200815 0.335200 7.337100 11.160200 -61.245222 0.490541 64.152179 92.018436 -58.688283 -67.525917 1.191938 -2.644155 -26.170947 -7.125000 0.000000 0.000000 70.376321 -20.617634 47.130910 -86.057935 57.277660 -61.562651 -0.560229 1.163214 -20.014336 7.125000 0.000000 0.000000 
12.341857 16.926083 42.029710 -168.436829 61.905886 -155.381678 -40.541442 -3.117623 -5.110419 4.541084 13.827237 44.767299 -1.444074 7.365521 4.661389 0.023300 -0.985000 -2.707700 15.131135 23.092777 -37.151874 -1.839632 -14.648034 35.500933 0.669338 -7.298799 -4.389523 -0.817700 5.770100 -16.118900 0.296402 1.003478 -3.318794 -4.325004 0.998165 6.499020 -1.983415 16.899315 8.311648 0.240700 7.249800 11.426400 -61.008478 0.642703 64.750071 92.446034 -58.696676 -67.652968 1.144305 -2.604608 -23.441198 -7.125000 0.000000 0.000000 69.337891 -20.906014 47.500815 -87.078492 57.405480 -62.568318 -0.574296 1.225749 -19.903055 7.125000 0.000000 0.000000 
12.567019 16.879282 41.951637 -171.181323 61.075900 -157.936722 -41.964834 -2.140163 -5.754378 5.230790 14.517925 47.358504 -2.209382 10.096974 0.278761 0.932700 -6.151900 -17.225900 13.803758 22.018824 -36.617242 -2.088860 -14.709357 36.136946 0.569109 -6.750662 -3.449312 -0.942800 6.184100 -17.319600 0.272575 0.890638 -3.366263 -3.890933 0.888179 6.366436 -2.016192 16.695498 8.316928 0.221500 7.128700 11.512000 -60.748256 0.673626 65.164123 93.519168 -58.705164 -68.416802 1.118299 -2.574731 -23.564543 -7.125000 0.000000 0.000000 68.303831 -21.373903 47.565414 -88.212370 57.539040 -63.683809 -0.585009 1.278149 -19.687733 7.125000 0.000000 0.000000 
12.794445 16.843156 41.882837 -170.815428 59.645539 -157.989230 -41.595049 -1.137401 -6.702511 6.134079 15.247419 50.493659 -2.397213 10.839063 -1.726290 0.718200 -5.415600 -15.097800 14.592900 21.334623 -35.530848 -2.248873 -14.742208 36.683565 0.538123 -6.489426 -3.634473 -1.296900 7.215100 -20.354100 0.245895 0.694423 -3.327239 -4.349183 0.854610 6.500162 -2.035344 16.381120 8.141285 0.219100 6.997300 11.421000 -59.885818 0.563766 65.197775 94.341177 -58.724362 -69.090626 1.113670 -2.550438 -23.431539 -7.125000 0.000000 0.000000 67.760639 -21.267943 47.678866 -89.260382 57.631720 -64.637375 -0.603723 1.310417 -19.722395 7.125000 0.000000 0.000000 
13.008177 16.854803 41.834419 -168.173252 56.796640 -155.687024 -39.231902 -1.270479 -8.645572 7.259205 16.113399 54.204256 -2.521216 11.397235 -3.310082 0.970600 -6.272300 -17.576500 17.316391 20.679906 -34.917168 -2.243025 -14.768401 36.902165 0.843897 -8.055960 -4.542532 -2.725400 10.236600 -29.746400 0.413051 0.149908 -3.345381 -4.711585 0.656373 6.507806 -2.018138 16.111128 7.951990 0.275000 6.876300 11.336300 -59.294069 0.369215 64.890646 94.940714 -58.709932 -69.680098 1.150907 -2.569064 -23.442816 -7.125000 0.000000 0.000000 67.116524 -20.892821 47.947231 -90.097983 57.667437 -65.387427 -0.624499 1.332841 -19.166484 7.125000 0.000000 0.000000 
13.214467 16.665119 41.814577 -169.169105 54.885938 -157.109163 -39.518004 -1.192647 -9.960161 8.601296 17.022290 58.582265 -2.673576 12.142100 -5.096584 1.515000 -7.773000 -22.026700 17.831273 18.481209 -32.346970 -2.461005 -14.451016 37.201019 0.183626 -4.374640 -6.147856 -1.428700 7.558100 -21.379600 0.491954 -0.248655 -3.333773 -4.438004 0.453071 6.516792 -1.926006 16.050693 7.883974 0.462000 6.808600 11.295500 -59.496093 0.290448 64.033197 96.442053 -58.691172 -71.210392 1.217292 -2.637628 -26.194120 -7.125000 0.000000 0.000000 65.868252 -20.786370 48.275705 -90.918642 57.731167 -66.182289 -0.644944 1.369558 -18.389110 7.125000 0.000000 0.000000 
